<?xml version="1.0" encoding="utf-8"?>
<!-- Generator: Adobe Illustrator 21.0.0, SVG Export Plug-In . SVG Version: 6.00 Build 0)  -->
<svg version="1.1" id="Layer_1" xmlns="http://www.w3.org/2000/svg" xmlns:xlink="http://www.w3.org/1999/xlink" x="0px" y="0px"
	 viewBox="0 0 200 90" style="enable-background:new 0 0 200 90;" xml:space="preserve">
<style type="text/css">
	.st0{fill:#00FFF4;}
</style>
<path class="st0" d="M110,53v2.5h-1c-1,0-1.8-0.4-2.5-1L102,50l2.5-2.5L110,53z M77.6,41c-0.7-0.7-1-1.5-1-2.5h7.1V42h-3.6
	C79.1,42,78.3,41.7,77.6,41z M122.2,48c-0.7,0.7-1.5,1-2.5,1h-9.2c0-1,0.4-1.8,1-2.5c0.7-0.7,1.5-1.1,2.5-1.1h5.7v-3.5l0,0H109
	L96.6,54.4c-0.7,0.7-1.5,1-2.5,1h-1v-2.5l6-6l-5-5h-6v13.5c-1,0-1.8-0.4-2.5-1c-0.7-0.7-1-1.5-1-2.5V42c0-1,0.4-1.8,1-2.5
	c0.7-0.7,1.5-1,2.5-1h5l0,0h1c1,0,1.8,0.4,2.5,1l5,5l5-5c0.7-0.7,1.6-1,2.5-1h0.5c0.1,0,0.2,0,0.3,0h10c1,0,1.8,0.4,2.5,1
	c0.7,0.7,1,1.5,1,2.5v3.5C123.3,46.5,122.9,47.3,122.2,48z M99.8,2.2c-23.7,0-43,19.3-43,43s19.3,43,43,43s43-19.3,43-43
	S123.6,2.2,99.8,2.2z M196.1,27.6c-0.4,0-0.7-0.2-0.9-0.5h-15.5l-8.9,9.2h10.6c0.1-0.9,0.8-1.6,1.7-1.6c1,0,1.7,0.8,1.7,1.7
	s-0.8,1.7-1.7,1.7c-0.7,0-1.3-0.5-1.6-1.1h-18.1l3.4,5.1h9c0.2-0.4,0.6-0.7,1.1-0.7c0.7,0,1.2,0.6,1.2,1.2s-0.6,1.2-1.2,1.2
	c-0.6,0-1.1-0.5-1.2-1h-9l-3.9-5.9h-8.9l-9.9,6.8c0,0.5,0,0.9,0,1.3c0,7.1-1.7,13.9-4.7,19.8l7.2,9.7h12.9l6-5.8h11.9
	c0-0.1,0-0.1,0-0.2c0-0.7,0.6-1.3,1.3-1.3c0.7,0,1.3,0.6,1.3,1.3s-0.6,1.3-1.3,1.3c-0.6,0-1-0.4-1.2-0.8h-11.6l-5.4,5.5h5
	c0.2-0.7,0.8-1.3,1.6-1.3c0.9,0,1.7,0.8,1.7,1.7s-0.8,1.7-1.7,1.7c-0.9,0-1.6-0.7-1.6-1.5h-19.4l-7.1-9.7c-7.3,14-22.1,23.6-39,23.6
	c-15.9,0-29.8-8.4-37.5-21l-15.6,7.1H22c-0.2,0.7-0.8,1.1-1.5,1.1c-0.9,0-1.6-0.7-1.6-1.6s0.7-1.6,1.6-1.6c0.8,0,1.5,0.6,1.6,1.3
	h7.4l-6.1-5.2H10.3c-0.2,0.5-0.6,0.9-1.2,0.9c-0.7,0-1.2-0.6-1.2-1.2c0-0.7,0.6-1.2,1.2-1.2c0.6,0,1.1,0.4,1.2,1h13.1l6.9,5.9h15.7
	l15.7-7.1c-3.9-6.5-6.1-14.2-6.1-22.3c0-0.5,0-1,0.1-1.6l-10.5,8.7H25.9c-0.2,0.7-0.9,1.2-1.6,1.2c-0.9,0-1.7-0.8-1.7-1.7
	s0.8-1.7,1.7-1.7c0.8,0,1.5,0.6,1.7,1.4h6.1l-10.3-8.6L16,47.8h-4.3c-0.1,0.5-0.6,0.9-1.1,0.9c-0.6,0-1.1-0.5-1.1-1.1
	s0.5-1.1,1.1-1.1c0.5,0,1,0.4,1.1,0.9h4l5.5-4.6l-6.5-5.5H5.1c0,0.8-0.6,1.3-1.4,1.3s-1.4-0.6-1.4-1.4s0.6-1.4,1.4-1.4
	c0.5,0,0.9,0.3,1.1,0.6h10.3l18.4,15.3h11.4l11-9.1c0.4-5.9,1.9-11.6,4.4-16.7l-9.4-11.7h-8.1l-5.3,6.1h-13
	c-0.2,0.5-0.6,0.9-1.1,0.9c-0.7,0-1.2-0.5-1.2-1.2c0-0.7,0.5-1.2,1.2-1.2c0.6,0,1.1,0.5,1.2,1.1h12.6l4.7-5.6H16.4
	c-0.2,0.8-0.8,1.3-1.6,1.3c-0.9,0-1.7-0.8-1.7-1.7s0.8-1.7,1.7-1.7c0.9,0,1.6,0.7,1.6,1.5h35l9.2,11.6c7.3-14.2,22.1-24,39.2-24
	c17.8,0,33.1,10.5,40,25.6l9.5-13.1h27.2c0.1-0.9,0.8-1.6,1.7-1.6c0.9,0,1.7,0.8,1.7,1.7c0,0.9-0.8,1.7-1.7,1.7
	c-0.8,0-1.4-0.5-1.6-1.3h-20.5l3,2.9l7.8,0.1c0.1-0.6,0.6-1,1.2-1c0.7,0,1.2,0.6,1.2,1.2c0,0.7-0.6,1.2-1.2,1.2
	c-0.6,0-1.1-0.5-1.2-1h-7.9l-3.6-3.4h-5.6l-9.6,13c2.1,4.8,3.4,10,3.7,15.5l9.8-6.5h16.3l9.5-9.6H195c0-0.1,0-0.2,0-0.2
	c0-0.6,0.5-1.1,1.1-1.1s1.1,0.5,1.1,1.1C197.2,27.1,196.7,27.6,196.1,27.6z M136.7,43.2c-3.3-0.2-9-0.7-9-0.7s-1.5,0.1-2.2-1.8
	c0-0.1,0-0.1-0.1-0.1c-0.6-1.9-2.1-6.5-2.1-6.5s-0.1-0.2-0.1-0.4c-0.4-1.7,0.8-2.5,0.8-2.5s4.1-3.6,6.7-5.7c0.1,0,0.1-0.1,0.1-0.1
	s1.2-1.2,2.5-0.9c1.1,0.3,1.7,1.4,1.7,1.4c1.9,3.2,3,6.3,3.7,8.8c0.4,1.6,0.8,3.4,0.9,5.3C139.6,40.2,140,43.3,136.7,43.2z
	 M128.4,21.9c-2.7,1.8-7.7,4.7-7.7,4.7s-1.2,1-2.8-0.2c-0.1,0-0.1-0.1-0.1-0.1c-1.6-1.2-5.5-4-5.5-4s-0.2-0.1-0.3-0.3
	c-1.4-1.2-0.9-2.5-0.9-2.5s1.2-5.3,2.1-8.5c0-0.1,0-0.1,0-0.1s0.3-1.7,1.6-2.2c1.1-0.4,2.2,0.2,2.2,0.2c3.4,1.5,6.1,3.3,8.1,4.9
	c1.3,1.1,2.6,2.3,3.9,3.8C129,17.8,131.1,20,128.4,21.9z M109.2,9.5c-1.2,3.1-3.4,8.4-3.4,8.4s-0.4,1.5-2.4,1.5c-0.1,0-0.1,0-0.1,0
	c-2,0-6.8,0-6.8,0s-0.2,0-0.4,0c-1.8-0.1-2.1-1.5-2.1-1.5s-2.2-5-3.3-8.1c0-0.1,0-0.1,0-0.1s-0.8-1.5,0-2.7c0.6-1,1.9-1.2,1.9-1.2
	c3.6-0.9,6.9-1,9.5-0.8c1.7,0.1,3.5,0.4,5.4,0.8C107.3,6,110.3,6.5,109.2,9.5z M87.5,22.3c-0.1,0-0.1,0.1-0.1,0.1
	c-1.6,1.2-5.5,4-5.5,4s-0.1,0.1-0.3,0.2c-1.5,1-2.6,0.1-2.6,0.1s-4.7-2.8-7.4-4.6c-0.1,0-0.1-0.1-0.1-0.1s-1.5-0.8-1.6-2.2
	c-0.1-1.1,0.8-2,0.8-2c2.4-2.8,5-4.8,7.2-6.2c1.4-0.9,3-1.8,4.8-2.5c0,0,2.8-1.4,3.7,1.8c0.9,3.1,2.1,8.8,2.1,8.8S89,21.1,87.5,22.3
	z M76.3,33.9c0,0.1,0,0.1-0.1,0.1c-0.6,1.9-2.1,6.5-2.1,6.5s-0.1,0.2-0.2,0.4c-0.7,1.6-2.1,1.6-2.1,1.6s-5.4,0.5-8.7,0.7
	c-0.1,0-0.1,0-0.1,0s-1.7,0.3-2.5-0.8c-0.7-0.9-0.6-2.1-0.6-2.1c0.3-3.7,1.3-6.8,2.2-9.2c0.6-1.6,1.4-3.2,2.4-4.8c0,0,1.5-2.7,4-0.7
	s6.9,5.8,6.9,5.8S76.8,32.1,76.3,33.9z M75.6,59.3c0,0-4.1,3.6-6.6,5.6c-0.1,0-0.1,0.1-0.1,0.1s-1.2,1.2-2.5,0.8
	c-1.1-0.3-1.7-1.4-1.7-1.4c-1.9-3.2-3-6.2-3.6-8.7c-0.4-1.6-0.8-3.4-0.9-5.3c0,0-0.4-3.1,2.8-2.9c3.3,0.2,9,0.7,9,0.7
	s1.5-0.1,2.1,1.8c0,0.1,0,0.1,0.1,0.1c0.6,1.9,2.1,6.5,2.1,6.5s0.1,0.2,0.1,0.4C76.7,58.5,75.6,59.3,75.6,59.3z M88.4,70.9
	c0,0-1.2,5.3-2.1,8.5c0,0.1,0,0.1,0,0.1S86,81,84.8,81.5c-1.1,0.4-2.2-0.2-2.2-0.2c-3.4-1.5-6.1-3.3-8-4.9c-1.3-1.1-2.6-2.3-3.9-3.8
	c0,0-2.1-2.2,0.6-4c2.7-1.8,7.6-4.7,7.6-4.7s1.2-1,2.8,0.2c0.1,0,0.1,0.1,0.1,0.1c1.6,1.2,5.5,4,5.5,4s0.2,0.1,0.3,0.3
	C88.9,69.5,88.4,70.9,88.4,70.9z M108.9,83.4c-0.6,1-1.8,1.2-1.8,1.2c-3.6,0.9-6.8,1-9.4,0.8c-1.7-0.1-3.5-0.4-5.3-0.8
	c0,0-3-0.6-1.9-3.6c1.2-3.1,3.4-8.3,3.4-8.3s0.4-1.5,2.3-1.5c0.1,0,0.1,0,0.1,0c2,0,6.8,0,6.8,0s0.2,0,0.4,0
	c1.8,0.1,2.1,1.5,2.1,1.5s2.2,5,3.3,8c0,0.1,0,0.1,0,0.1S109.7,82.3,108.9,83.4z M128.8,72.8c-2.4,2.8-5,4.8-7.1,6.1
	c-1.4,0.9-3,1.8-4.8,2.5c0,0-2.8,1.4-3.7-1.8c-0.9-3.1-2.1-8.8-2.1-8.8s-0.6-1.4,1-2.6c0.1,0,0.1-0.1,0.1-0.1c1.6-1.2,5.5-4,5.5-4
	s0.1-0.1,0.3-0.2c1.5-0.9,2.6-0.1,2.6-0.1s4.7,2.8,7.4,4.6c0.1,0,0.1,0.1,0.1,0.1s1.5,0.8,1.6,2.1C129.6,71.9,128.8,72.8,128.8,72.8
	z M139.3,50.5c-0.3,3.7-1.2,6.8-2.2,9.2c-0.6,1.6-1.4,3.2-2.4,4.8c0,0-1.5,2.7-4,0.7c-2.6-2-6.8-5.8-6.8-5.8s-1.3-0.9-0.7-2.7
	c0-0.1,0-0.1,0.1-0.1c0.6-1.9,2.1-6.4,2.1-6.4s0.1-0.2,0.2-0.4c0.7-1.6,2.1-1.6,2.1-1.6s5.4-0.5,8.7-0.7c0.1,0,0.1,0,0.1,0
	s1.7-0.3,2.5,0.8C139.5,49.2,139.3,50.5,139.3,50.5z"/>
</svg>
